<svg xmlns="http://www.w3.org/2000/svg" width="1120" height="540" viewBox="0 0 1120 540">
<rect width="100%" height="100%" fill="#ffffff"/>
<text x="560" y="34" text-anchor="middle" font-family="Arial,Helvetica,sans-serif" font-size="20" font-weight="700" fill="#202124">Sample Controller Timeline</text>
<line x1="90" y1="360" x2="1030" y2="360" stroke="#202124" stroke-width="1"/>
<line x1="90.00" y1="70" x2="90.00" y2="360" stroke="#d0d5dd" stroke-width="1"/>
<text x="90.00" y="382" text-anchor="middle" font-family="Arial,Helvetica,sans-serif" font-size="11" fill="#4b5563">0 us</text>
<line x1="325.00" y1="70" x2="325.00" y2="360" stroke="#d0d5dd" stroke-width="1"/>
<text x="325.00" y="382" text-anchor="middle" font-family="Arial,Helvetica,sans-serif" font-size="11" fill="#4b5563">61 us</text>
<line x1="560.00" y1="70" x2="560.00" y2="360" stroke="#d0d5dd" stroke-width="1"/>
<text x="560.00" y="382" text-anchor="middle" font-family="Arial,Helvetica,sans-serif" font-size="11" fill="#4b5563">121 us</text>
<line x1="795.00" y1="70" x2="795.00" y2="360" stroke="#d0d5dd" stroke-width="1"/>
<text x="795.00" y="382" text-anchor="middle" font-family="Arial,Helvetica,sans-serif" font-size="11" fill="#4b5563">182 us</text>
<line x1="1030.00" y1="70" x2="1030.00" y2="360" stroke="#d0d5dd" stroke-width="1"/>
<text x="1030.00" y="382" text-anchor="middle" font-family="Arial,Helvetica,sans-serif" font-size="11" fill="#4b5563">242 us</text>
<text x="80" y="100" text-anchor="end" font-family="Arial,Helvetica,sans-serif" font-size="11" fill="#374151">ch0</text>
<line x1="90" y1="96" x2="1030" y2="96" stroke="#eef2f7" stroke-width="1"/>
<rect x="90.00" y="84" width="117.50" height="14" fill="#2f9c74" opacity="0.75"/>
<rect x="207.50" y="84" width="117.50" height="14" fill="#2f9c74" opacity="0.75"/>
<rect x="325.00" y="84" width="117.50" height="14" fill="#2f9c74" opacity="0.75"/>
<rect x="442.50" y="84" width="117.50" height="14" fill="#2f9c74" opacity="0.75"/>
<rect x="443.49" y="102" width="15.91" height="8" fill="#4b5563" opacity="0.82"/>
<rect x="459.40" y="102" width="15.91" height="8" fill="#4b5563" opacity="0.82"/>
<rect x="475.31" y="102" width="15.91" height="8" fill="#4b5563" opacity="0.82"/>
<rect x="491.21" y="102" width="15.91" height="8" fill="#4b5563" opacity="0.82"/>
<rect x="560.00" y="84" width="117.50" height="14" fill="#2f9c74" opacity="0.75"/>
<rect x="677.50" y="84" width="117.50" height="14" fill="#2f9c74" opacity="0.75"/>
<rect x="795.00" y="84" width="117.50" height="14" fill="#2f9c74" opacity="0.75"/>
<rect x="912.50" y="84" width="117.50" height="14" fill="#2f9c74" opacity="0.75"/>
<rect x="913.49" y="102" width="15.91" height="8" fill="#4b5563" opacity="0.82"/>
<rect x="929.40" y="102" width="15.91" height="8" fill="#4b5563" opacity="0.82"/>
<rect x="945.31" y="102" width="15.91" height="8" fill="#4b5563" opacity="0.82"/>
<rect x="961.21" y="102" width="15.91" height="8" fill="#4b5563" opacity="0.82"/>
<text x="80" y="134" text-anchor="end" font-family="Arial,Helvetica,sans-serif" font-size="11" fill="#374151">ch1</text>
<line x1="90" y1="130" x2="1030" y2="130" stroke="#eef2f7" stroke-width="1"/>
<rect x="90.00" y="118" width="117.50" height="14" fill="#2f9c74" opacity="0.75"/>
<rect x="207.50" y="118" width="117.50" height="14" fill="#2f9c74" opacity="0.75"/>
<rect x="325.00" y="118" width="117.50" height="14" fill="#2f9c74" opacity="0.75"/>
<rect x="442.50" y="118" width="117.50" height="14" fill="#2f9c74" opacity="0.75"/>
<rect x="443.49" y="136" width="15.91" height="8" fill="#4b5563" opacity="0.82"/>
<rect x="459.40" y="136" width="15.91" height="8" fill="#4b5563" opacity="0.82"/>
<rect x="475.31" y="136" width="15.91" height="8" fill="#4b5563" opacity="0.82"/>
<rect x="491.21" y="136" width="15.91" height="8" fill="#4b5563" opacity="0.82"/>
<rect x="560.00" y="118" width="117.50" height="14" fill="#2f9c74" opacity="0.75"/>
<rect x="677.50" y="118" width="117.50" height="14" fill="#2f9c74" opacity="0.75"/>
<rect x="795.00" y="118" width="117.50" height="14" fill="#2f9c74" opacity="0.75"/>
<rect x="912.50" y="118" width="117.50" height="14" fill="#2f9c74" opacity="0.75"/>
<rect x="913.49" y="136" width="15.91" height="8" fill="#4b5563" opacity="0.82"/>
<rect x="929.40" y="136" width="15.91" height="8" fill="#4b5563" opacity="0.82"/>
<rect x="945.31" y="136" width="15.91" height="8" fill="#4b5563" opacity="0.82"/>
<rect x="961.21" y="136" width="15.91" height="8" fill="#4b5563" opacity="0.82"/>
<text x="80" y="168" text-anchor="end" font-family="Arial,Helvetica,sans-serif" font-size="11" fill="#374151">ch2</text>
<line x1="90" y1="164" x2="1030" y2="164" stroke="#eef2f7" stroke-width="1"/>
<rect x="90.00" y="152" width="117.50" height="14" fill="#2f9c74" opacity="0.75"/>
<rect x="207.50" y="152" width="117.50" height="14" fill="#2f9c74" opacity="0.75"/>
<rect x="325.00" y="152" width="117.50" height="14" fill="#2f9c74" opacity="0.75"/>
<rect x="442.50" y="152" width="117.50" height="14" fill="#2f9c74" opacity="0.75"/>
<rect x="443.49" y="170" width="15.91" height="8" fill="#4b5563" opacity="0.82"/>
<rect x="459.40" y="170" width="15.91" height="8" fill="#4b5563" opacity="0.82"/>
<rect x="475.31" y="170" width="15.91" height="8" fill="#4b5563" opacity="0.82"/>
<rect x="491.21" y="170" width="15.91" height="8" fill="#4b5563" opacity="0.82"/>
<rect x="560.00" y="152" width="117.50" height="14" fill="#2f9c74" opacity="0.75"/>
<rect x="677.50" y="152" width="117.50" height="14" fill="#2f9c74" opacity="0.75"/>
<rect x="795.00" y="152" width="117.50" height="14" fill="#2f9c74" opacity="0.75"/>
<rect x="912.50" y="152" width="117.50" height="14" fill="#2f9c74" opacity="0.75"/>
<rect x="913.49" y="170" width="15.91" height="8" fill="#4b5563" opacity="0.82"/>
<rect x="929.40" y="170" width="15.91" height="8" fill="#4b5563" opacity="0.82"/>
<rect x="945.31" y="170" width="15.91" height="8" fill="#4b5563" opacity="0.82"/>
<rect x="961.21" y="170" width="15.91" height="8" fill="#4b5563" opacity="0.82"/>
<text x="80" y="202" text-anchor="end" font-family="Arial,Helvetica,sans-serif" font-size="11" fill="#374151">ch3</text>
<line x1="90" y1="198" x2="1030" y2="198" stroke="#eef2f7" stroke-width="1"/>
<rect x="90.00" y="186" width="117.50" height="14" fill="#2f9c74" opacity="0.75"/>
<rect x="207.50" y="186" width="117.50" height="14" fill="#2f9c74" opacity="0.75"/>
<rect x="325.00" y="186" width="117.50" height="14" fill="#2f9c74" opacity="0.75"/>
<rect x="442.50" y="186" width="117.50" height="14" fill="#2f9c74" opacity="0.75"/>
<rect x="443.49" y="204" width="15.91" height="8" fill="#4b5563" opacity="0.82"/>
<rect x="459.40" y="204" width="15.91" height="8" fill="#4b5563" opacity="0.82"/>
<rect x="475.31" y="204" width="15.91" height="8" fill="#4b5563" opacity="0.82"/>
<rect x="491.21" y="204" width="15.91" height="8" fill="#4b5563" opacity="0.82"/>
<rect x="560.00" y="186" width="117.50" height="14" fill="#2f9c74" opacity="0.75"/>
<rect x="677.50" y="186" width="117.50" height="14" fill="#2f9c74" opacity="0.75"/>
<rect x="795.00" y="186" width="117.50" height="14" fill="#2f9c74" opacity="0.75"/>
<rect x="912.50" y="186" width="117.50" height="14" fill="#2f9c74" opacity="0.75"/>
<rect x="913.49" y="204" width="15.91" height="8" fill="#4b5563" opacity="0.82"/>
<rect x="929.40" y="204" width="15.91" height="8" fill="#4b5563" opacity="0.82"/>
<rect x="945.31" y="204" width="15.91" height="8" fill="#4b5563" opacity="0.82"/>
<rect x="961.21" y="204" width="15.91" height="8" fill="#4b5563" opacity="0.82"/>
<text x="80" y="236" text-anchor="end" font-family="Arial,Helvetica,sans-serif" font-size="11" fill="#374151">ch4</text>
<line x1="90" y1="232" x2="1030" y2="232" stroke="#eef2f7" stroke-width="1"/>
<rect x="90.00" y="220" width="117.50" height="14" fill="#2f9c74" opacity="0.75"/>
<rect x="207.50" y="220" width="117.50" height="14" fill="#2f9c74" opacity="0.75"/>
<rect x="325.00" y="220" width="117.50" height="14" fill="#2f9c74" opacity="0.75"/>
<rect x="442.50" y="220" width="117.50" height="14" fill="#2f9c74" opacity="0.75"/>
<rect x="443.49" y="238" width="15.91" height="8" fill="#4b5563" opacity="0.82"/>
<rect x="459.40" y="238" width="15.91" height="8" fill="#4b5563" opacity="0.82"/>
<rect x="475.31" y="238" width="15.91" height="8" fill="#4b5563" opacity="0.82"/>
<rect x="491.21" y="238" width="15.91" height="8" fill="#4b5563" opacity="0.82"/>
<rect x="560.00" y="220" width="117.50" height="14" fill="#2f9c74" opacity="0.75"/>
<rect x="677.50" y="220" width="117.50" height="14" fill="#2f9c74" opacity="0.75"/>
<rect x="795.00" y="220" width="117.50" height="14" fill="#2f9c74" opacity="0.75"/>
<rect x="912.50" y="220" width="117.50" height="14" fill="#2f9c74" opacity="0.75"/>
<rect x="913.49" y="238" width="15.91" height="8" fill="#4b5563" opacity="0.82"/>
<rect x="929.40" y="238" width="15.91" height="8" fill="#4b5563" opacity="0.82"/>
<rect x="945.31" y="238" width="15.91" height="8" fill="#4b5563" opacity="0.82"/>
<rect x="961.21" y="238" width="15.91" height="8" fill="#4b5563" opacity="0.82"/>
<text x="80" y="270" text-anchor="end" font-family="Arial,Helvetica,sans-serif" font-size="11" fill="#374151">ch5</text>
<line x1="90" y1="266" x2="1030" y2="266" stroke="#eef2f7" stroke-width="1"/>
<rect x="90.00" y="254" width="117.50" height="14" fill="#2f9c74" opacity="0.75"/>
<rect x="207.50" y="254" width="117.50" height="14" fill="#2f9c74" opacity="0.75"/>
<rect x="325.00" y="254" width="117.50" height="14" fill="#2f9c74" opacity="0.75"/>
<rect x="442.50" y="254" width="117.50" height="14" fill="#2f9c74" opacity="0.75"/>
<rect x="443.49" y="272" width="15.91" height="8" fill="#4b5563" opacity="0.82"/>
<rect x="459.40" y="272" width="15.91" height="8" fill="#4b5563" opacity="0.82"/>
<rect x="475.31" y="272" width="15.91" height="8" fill="#4b5563" opacity="0.82"/>
<rect x="491.21" y="272" width="15.91" height="8" fill="#4b5563" opacity="0.82"/>
<rect x="560.00" y="254" width="117.50" height="14" fill="#2f9c74" opacity="0.75"/>
<rect x="677.50" y="254" width="117.50" height="14" fill="#2f9c74" opacity="0.75"/>
<rect x="795.00" y="254" width="117.50" height="14" fill="#2f9c74" opacity="0.75"/>
<rect x="912.50" y="254" width="117.50" height="14" fill="#2f9c74" opacity="0.75"/>
<rect x="913.49" y="272" width="15.91" height="8" fill="#4b5563" opacity="0.82"/>
<rect x="929.40" y="272" width="15.91" height="8" fill="#4b5563" opacity="0.82"/>
<rect x="945.31" y="272" width="15.91" height="8" fill="#4b5563" opacity="0.82"/>
<rect x="961.21" y="272" width="15.91" height="8" fill="#4b5563" opacity="0.82"/>
<text x="80" y="304" text-anchor="end" font-family="Arial,Helvetica,sans-serif" font-size="11" fill="#374151">ch6</text>
<line x1="90" y1="300" x2="1030" y2="300" stroke="#eef2f7" stroke-width="1"/>
<rect x="90.00" y="288" width="117.50" height="14" fill="#2f9c74" opacity="0.75"/>
<rect x="207.50" y="288" width="117.50" height="14" fill="#2f9c74" opacity="0.75"/>
<rect x="325.00" y="288" width="117.50" height="14" fill="#2f9c74" opacity="0.75"/>
<rect x="442.50" y="288" width="117.50" height="14" fill="#2f9c74" opacity="0.75"/>
<rect x="443.49" y="306" width="15.91" height="8" fill="#4b5563" opacity="0.82"/>
<rect x="459.40" y="306" width="15.91" height="8" fill="#4b5563" opacity="0.82"/>
<rect x="475.31" y="306" width="15.91" height="8" fill="#4b5563" opacity="0.82"/>
<rect x="491.21" y="306" width="15.91" height="8" fill="#4b5563" opacity="0.82"/>
<rect x="560.00" y="288" width="117.50" height="14" fill="#2f9c74" opacity="0.75"/>
<rect x="677.50" y="288" width="117.50" height="14" fill="#2f9c74" opacity="0.75"/>
<rect x="795.00" y="288" width="117.50" height="14" fill="#2f9c74" opacity="0.75"/>
<rect x="912.50" y="288" width="117.50" height="14" fill="#2f9c74" opacity="0.75"/>
<rect x="913.49" y="306" width="15.91" height="8" fill="#4b5563" opacity="0.82"/>
<rect x="929.40" y="306" width="15.91" height="8" fill="#4b5563" opacity="0.82"/>
<rect x="945.31" y="306" width="15.91" height="8" fill="#4b5563" opacity="0.82"/>
<rect x="961.21" y="306" width="15.91" height="8" fill="#4b5563" opacity="0.82"/>
<text x="80" y="338" text-anchor="end" font-family="Arial,Helvetica,sans-serif" font-size="11" fill="#374151">ch7</text>
<line x1="90" y1="334" x2="1030" y2="334" stroke="#eef2f7" stroke-width="1"/>
<rect x="90.00" y="322" width="117.50" height="14" fill="#2f9c74" opacity="0.75"/>
<rect x="207.50" y="322" width="117.50" height="14" fill="#2f9c74" opacity="0.75"/>
<rect x="325.00" y="322" width="117.50" height="14" fill="#2f9c74" opacity="0.75"/>
<rect x="442.50" y="322" width="117.50" height="14" fill="#2f9c74" opacity="0.75"/>
<rect x="443.49" y="340" width="15.91" height="8" fill="#4b5563" opacity="0.82"/>
<rect x="459.40" y="340" width="15.91" height="8" fill="#4b5563" opacity="0.82"/>
<rect x="475.31" y="340" width="15.91" height="8" fill="#4b5563" opacity="0.82"/>
<rect x="491.21" y="340" width="15.91" height="8" fill="#4b5563" opacity="0.82"/>
<rect x="560.00" y="322" width="117.50" height="14" fill="#2f9c74" opacity="0.75"/>
<rect x="677.50" y="322" width="117.50" height="14" fill="#2f9c74" opacity="0.75"/>
<rect x="795.00" y="322" width="117.50" height="14" fill="#2f9c74" opacity="0.75"/>
<rect x="912.50" y="322" width="117.50" height="14" fill="#2f9c74" opacity="0.75"/>
<rect x="913.49" y="340" width="15.91" height="8" fill="#4b5563" opacity="0.82"/>
<rect x="929.40" y="340" width="15.91" height="8" fill="#4b5563" opacity="0.82"/>
<rect x="945.31" y="340" width="15.91" height="8" fill="#4b5563" opacity="0.82"/>
<rect x="961.21" y="340" width="15.91" height="8" fill="#4b5563" opacity="0.82"/>
<rect x="90" y="448" width="14" height="14" fill="#2f9c74" opacity="0.75"/><text x="110" y="460" font-family="Arial,Helvetica,sans-serif" font-size="13" fill="#202124">READ_COMPUTE service window</text>
<rect x="90" y="478" width="14" height="8" fill="#4b5563" opacity="0.82"/><text x="110" y="486" font-family="Arial,Helvetica,sans-serif" font-size="13" fill="#202124">READ_SLICE channel transfers inserted after each four tiled requests</text>
<text x="90" y="514" font-family="Arial,Helvetica,sans-serif" font-size="12" fill="#4b5563">Sample uses OPT-6.7B/Cambricon-LLM-S dimensions: 256x2048 tile, 0.256 us channel transfer, 4.096 us slice transfer.</text>
</svg>
