<svg xmlns="http://www.w3.org/2000/svg" width="1320" height="760" viewBox="0 0 1320 760">
<rect width="100%" height="100%" fill="#ffffff"/>
<text x="660" y="34" text-anchor="middle" font-family="Arial,Helvetica,sans-serif" font-size="20" font-weight="700" fill="#202124">Cambricon-LLM Figure 9 Decode-Speed Reproduction</text>
<line x1="80" y1="580" x2="1240" y2="580" stroke="#202124" stroke-width="1"/>
<line x1="80" y1="80" x2="80" y2="580" stroke="#202124" stroke-width="1"/>
<line x1="80" y1="580.00" x2="1240" y2="580.00" stroke="#d0d5dd" stroke-width="1"/>
<text x="72" y="584.00" text-anchor="end" font-family="Arial,Helvetica,sans-serif" font-size="11" fill="#4b5563">0</text>
<line x1="80" y1="480.00" x2="1240" y2="480.00" stroke="#d0d5dd" stroke-width="1"/>
<text x="72" y="484.00" text-anchor="end" font-family="Arial,Helvetica,sans-serif" font-size="11" fill="#4b5563">8</text>
<line x1="80" y1="380.00" x2="1240" y2="380.00" stroke="#d0d5dd" stroke-width="1"/>
<text x="72" y="384.00" text-anchor="end" font-family="Arial,Helvetica,sans-serif" font-size="11" fill="#4b5563">16</text>
<line x1="80" y1="280.00" x2="1240" y2="280.00" stroke="#d0d5dd" stroke-width="1"/>
<text x="72" y="284.00" text-anchor="end" font-family="Arial,Helvetica,sans-serif" font-size="11" fill="#4b5563">24</text>
<line x1="80" y1="180.00" x2="1240" y2="180.00" stroke="#d0d5dd" stroke-width="1"/>
<text x="72" y="184.00" text-anchor="end" font-family="Arial,Helvetica,sans-serif" font-size="11" fill="#4b5563">33</text>
<line x1="80" y1="80.00" x2="1240" y2="80.00" stroke="#d0d5dd" stroke-width="1"/>
<text x="72" y="84.00" text-anchor="end" font-family="Arial,Helvetica,sans-serif" font-size="11" fill="#4b5563">41</text>
<rect x="96.50" y="535.73" width="8" height="44.27" fill="#4b5563"/>
<rect x="110.50" y="534.92" width="8" height="45.08" fill="#2f9c74"/>
<text x="113.50" y="652" text-anchor="end" transform="rotate(-60 113.50 652)" font-family="Arial,Helvetica,sans-serif" font-size="10" fill="#374151">OPT-6.7B/cam_llm_s</text>
<rect x="151.50" y="444.72" width="8" height="135.28" fill="#4b5563"/>
<rect x="165.50" y="456.44" width="8" height="123.56" fill="#2f9c74"/>
<text x="168.50" y="652" text-anchor="end" transform="rotate(-60 168.50 652)" font-family="Arial,Helvetica,sans-serif" font-size="10" fill="#374151">OPT-6.7B/cam_llm_m</text>
<rect x="206.50" y="133.57" width="8" height="446.43" fill="#4b5563"/>
<rect x="220.50" y="197.34" width="8" height="382.66" fill="#2f9c74"/>
<text x="223.50" y="652" text-anchor="end" transform="rotate(-60 223.50 652)" font-family="Arial,Helvetica,sans-serif" font-size="10" fill="#374151">OPT-6.7B/cam_llm_l</text>
<rect x="261.50" y="556.63" width="8" height="23.37" fill="#4b5563"/>
<rect x="275.50" y="556.90" width="8" height="23.10" fill="#2f9c74"/>
<text x="278.50" y="652" text-anchor="end" transform="rotate(-60 278.50 652)" font-family="Arial,Helvetica,sans-serif" font-size="10" fill="#374151">OPT-13B/cam_llm_s</text>
<rect x="316.50" y="522.20" width="8" height="57.80" fill="#4b5563"/>
<rect x="330.50" y="515.47" width="8" height="64.53" fill="#2f9c74"/>
<text x="333.50" y="652" text-anchor="end" transform="rotate(-60 333.50 652)" font-family="Arial,Helvetica,sans-serif" font-size="10" fill="#374151">OPT-13B/cam_llm_m</text>
<rect x="371.50" y="405.36" width="8" height="174.64" fill="#4b5563"/>
<rect x="385.50" y="383.02" width="8" height="196.98" fill="#2f9c74"/>
<text x="388.50" y="652" text-anchor="end" transform="rotate(-60 388.50 652)" font-family="Arial,Helvetica,sans-serif" font-size="10" fill="#374151">OPT-13B/cam_llm_l</text>
<rect x="426.50" y="570.16" width="8" height="9.84" fill="#4b5563"/>
<rect x="440.50" y="570.17" width="8" height="9.83" fill="#2f9c74"/>
<text x="443.50" y="652" text-anchor="end" transform="rotate(-60 443.50 652)" font-family="Arial,Helvetica,sans-serif" font-size="10" fill="#374151">OPT-30B/cam_llm_s</text>
<rect x="481.50" y="549.25" width="8" height="30.75" fill="#4b5563"/>
<rect x="495.50" y="551.62" width="8" height="28.38" fill="#2f9c74"/>
<text x="498.50" y="652" text-anchor="end" transform="rotate(-60 498.50 652)" font-family="Arial,Helvetica,sans-serif" font-size="10" fill="#374151">OPT-30B/cam_llm_m</text>
<rect x="536.50" y="486.53" width="8" height="93.47" fill="#4b5563"/>
<rect x="550.50" y="497.22" width="8" height="82.78" fill="#2f9c74"/>
<text x="553.50" y="652" text-anchor="end" transform="rotate(-60 553.50 652)" font-family="Arial,Helvetica,sans-serif" font-size="10" fill="#374151">OPT-30B/cam_llm_l</text>
<rect x="591.50" y="575.08" width="8" height="4.92" fill="#4b5563"/>
<rect x="605.50" y="575.69" width="8" height="4.31" fill="#2f9c74"/>
<text x="608.50" y="652" text-anchor="end" transform="rotate(-60 608.50 652)" font-family="Arial,Helvetica,sans-serif" font-size="10" fill="#374151">OPT-66B/cam_llm_s</text>
<rect x="646.50" y="565.24" width="8" height="14.76" fill="#4b5563"/>
<rect x="660.50" y="566.98" width="8" height="13.02" fill="#2f9c74"/>
<text x="663.50" y="652" text-anchor="end" transform="rotate(-60 663.50 652)" font-family="Arial,Helvetica,sans-serif" font-size="10" fill="#374151">OPT-66B/cam_llm_m</text>
<rect x="701.50" y="548.02" width="8" height="31.98" fill="#4b5563"/>
<rect x="715.50" y="545.13" width="8" height="34.87" fill="#2f9c74"/>
<text x="718.50" y="652" text-anchor="end" transform="rotate(-60 718.50 652)" font-family="Arial,Helvetica,sans-serif" font-size="10" fill="#374151">OPT-66B/cam_llm_l</text>
<rect x="756.50" y="535.73" width="8" height="44.27" fill="#4b5563"/>
<rect x="770.50" y="535.18" width="8" height="44.82" fill="#2f9c74"/>
<text x="773.50" y="652" text-anchor="end" transform="rotate(-60 773.50 652)" font-family="Arial,Helvetica,sans-serif" font-size="10" fill="#374151">LLaMA2-7B/cam_llm_s</text>
<rect x="811.50" y="452.10" width="8" height="127.90" fill="#4b5563"/>
<rect x="825.50" y="457.12" width="8" height="122.88" fill="#2f9c74"/>
<text x="828.50" y="652" text-anchor="end" transform="rotate(-60 828.50 652)" font-family="Arial,Helvetica,sans-serif" font-size="10" fill="#374151">LLaMA2-7B/cam_llm_m</text>
<rect x="866.50" y="161.86" width="8" height="418.14" fill="#4b5563"/>
<rect x="880.50" y="199.26" width="8" height="380.74" fill="#2f9c74"/>
<text x="883.50" y="652" text-anchor="end" transform="rotate(-60 883.50 652)" font-family="Arial,Helvetica,sans-serif" font-size="10" fill="#374151">LLaMA2-7B/cam_llm_l</text>
<rect x="921.50" y="556.63" width="8" height="23.37" fill="#4b5563"/>
<rect x="935.50" y="556.90" width="8" height="23.10" fill="#2f9c74"/>
<text x="938.50" y="652" text-anchor="end" transform="rotate(-60 938.50 652)" font-family="Arial,Helvetica,sans-serif" font-size="10" fill="#374151">LLaMA2-13B/cam_llm_s</text>
<rect x="976.50" y="522.20" width="8" height="57.80" fill="#4b5563"/>
<rect x="990.50" y="515.47" width="8" height="64.53" fill="#2f9c74"/>
<text x="993.50" y="652" text-anchor="end" transform="rotate(-60 993.50 652)" font-family="Arial,Helvetica,sans-serif" font-size="10" fill="#374151">LLaMA2-13B/cam_llm_m</text>
<rect x="1031.50" y="407.82" width="8" height="172.18" fill="#4b5563"/>
<rect x="1045.50" y="383.02" width="8" height="196.98" fill="#2f9c74"/>
<text x="1048.50" y="652" text-anchor="end" transform="rotate(-60 1048.50 652)" font-family="Arial,Helvetica,sans-serif" font-size="10" fill="#374151">LLaMA2-13B/cam_llm_l</text>
<rect x="1086.50" y="576.31" width="8" height="3.69" fill="#4b5563"/>
<rect x="1100.50" y="575.85" width="8" height="4.15" fill="#2f9c74"/>
<text x="1103.50" y="652" text-anchor="end" transform="rotate(-60 1103.50 652)" font-family="Arial,Helvetica,sans-serif" font-size="10" fill="#374151">LLaMA2-70B/cam_llm_s</text>
<rect x="1141.50" y="567.70" width="8" height="12.30" fill="#4b5563"/>
<rect x="1155.50" y="567.20" width="8" height="12.80" fill="#2f9c74"/>
<text x="1158.50" y="652" text-anchor="end" transform="rotate(-60 1158.50 652)" font-family="Arial,Helvetica,sans-serif" font-size="10" fill="#374151">LLaMA2-70B/cam_llm_m</text>
<rect x="1196.50" y="538.19" width="8" height="41.81" fill="#4b5563"/>
<rect x="1210.50" y="544.30" width="8" height="35.70" fill="#2f9c74"/>
<text x="1213.50" y="652" text-anchor="end" transform="rotate(-60 1213.50 652)" font-family="Arial,Helvetica,sans-serif" font-size="10" fill="#374151">LLaMA2-70B/cam_llm_l</text>
<text x="100" y="620" font-family="Arial,Helvetica,sans-serif" font-size="13" fill="#202124">Paper</text><rect x="80" y="609" width="14" height="14" fill="#4b5563"/>
<text x="190" y="620" font-family="Arial,Helvetica,sans-serif" font-size="13" fill="#202124">C simulator</text><rect x="170" y="609" width="14" height="14" fill="#2f9c74"/>
<text x="310" y="620" font-family="Arial,Helvetica,sans-serif" font-size="13" fill="#202124">Mean abs error 8.341%, max abs error 14.618%</text>
<text x="28" y="330" text-anchor="middle" font-family="Arial,Helvetica,sans-serif" font-size="13" fill="#202124">Decode speed (token/s)</text>
</svg>
